<?xml version="1.0" encoding="utf-8"?>
<!-- Generator: Adobe Illustrator 16.0.0, SVG Export Plug-In . SVG Version: 6.00 Build 0)  -->
<!DOCTYPE svg PUBLIC "-//W3C//DTD SVG 1.1//EN" "http://www.w3.org/Graphics/SVG/1.1/DTD/svg11.dtd">
<svg version="1.1" id="Layer_1" xmlns="http://www.w3.org/2000/svg" xmlns:xlink="http://www.w3.org/1999/xlink" x="0px" y="0px"
	 width="100px" height="120px" viewBox="0 0 100 120" enable-background="new 0 0 100 120" xml:space="preserve">
<g>
	<path fill="#FFFFFF" stroke="#515151" stroke-width="2.2214" stroke-miterlimit="10" d="M14.095,78.512l2.963,27.768
		c0,0-0.37,4.445,4.442,4.445s58.868,0,58.868,0s2.223-0.742,2.962-4.445l2.592-28.508L14.095,78.512z"/>
	<path fill="#23A018" stroke="#515151" stroke-width="2.2214" stroke-miterlimit="10" d="M23.832,9.647c0,0-5.184,0.741-5.554,4.073
		c-0.369,3.332-3.812,61.088-3.812,61.088s-1.11,4.072,2.222,4.072s65.533,0,65.533,0s3.331,0.37,3.701-2.592
		s-2.963-62.57-2.963-62.57s-0.369-4.443-3.701-4.443C75.925,9.277,23.832,9.647,23.832,9.647z"/>
</g>
</svg>
