<?xml version="1.0" encoding="utf-8"?>
<!-- Generator: Adobe Illustrator 16.0.0, SVG Export Plug-In . SVG Version: 6.00 Build 0)  -->
<!DOCTYPE svg PUBLIC "-//W3C//DTD SVG 1.1//EN" "http://www.w3.org/Graphics/SVG/1.1/DTD/svg11.dtd">
<svg version="1.1" id="Layer_1" xmlns="http://www.w3.org/2000/svg" xmlns:xlink="http://www.w3.org/1999/xlink" x="0px" y="0px"
	 width="100px" height="120px" viewBox="0 0 100 120" enable-background="new 0 0 100 120" xml:space="preserve">
<g>
	<path fill="#23A018" stroke="#515151" stroke-width="2.2214" stroke-miterlimit="10" d="M17.147,106.23
		c0,0-0.369,4.442,4.443,4.442c4.813,0,58.869,0,58.869,0s2.223-0.742,2.962-4.442H17.147z"/>
	<polygon fill="#FFFFFF" stroke="#515151" stroke-width="2.2214" stroke-miterlimit="10" points="14.186,78.459 17.147,106.23 
		83.422,106.23 86.013,77.719 	"/>
	<path fill="#FFFFFF" stroke="#515151" stroke-width="2.2214" stroke-miterlimit="10" d="M24.923,9.595c0,0-5.185,0.741-5.555,4.073
		C19,17,14.556,74.756,14.556,74.756s-1.109,4.075,2.223,4.075c3.332,0,65.533,0,65.533,0s3.332,0.369,3.702-2.593
		c0.369-2.962-2.961-62.571-2.961-62.571s-0.371-4.442-3.703-4.442C76.017,9.225,24.923,9.595,24.923,9.595z"/>
	<g>
		<path fill="#2B2B2B" d="M44.115,17.15c0.521-0.326,1.009-0.304,1.464,0.065c1.02,0.803,1.095,1.866,0.228,3.189
			c-1.02,3.515-3.721,6.91-8.103,10.186c-1.15,0.781-2.159,0.607-3.026-0.521c-0.239-0.824,0.086-1.432,0.977-1.822
			c3.297-1.757,5.813-4.111,7.549-7.061c0.412-0.933,0.618-1.909,0.618-2.929C43.908,17.605,44.006,17.237,44.115,17.15z
			 M50.07,16.466c0.282-0.369,0.651-0.509,1.106-0.423c1.475,0.478,2.125,1.486,1.952,3.026c0.282,1.367,1.432,3.038,3.449,5.011
			c2.668,2.668,5.261,4.469,7.777,5.402c0.781,0.217,1.302,0.401,1.562,0.553c0.282,0.195,0.314,0.477,0.098,0.846
			c-1.042,0.977-2.473,1.399-4.295,1.269c-0.911-0.108-1.769-0.64-2.571-1.594c-2.972-3.384-5.641-6.844-8.005-10.38
			C50.124,18.896,49.766,17.66,50.07,16.466z"/>
		<path fill="#FF4343" d="M43.952,45.493c0.456-0.151,0.998-0.076,1.627,0.228c0.521,0.304,0.662,0.792,0.423,1.464
			c-0.043,0.564,0.184,0.846,0.684,0.846c0.521-0.043,1.009,0.011,1.464,0.163c0.846,0.694,0.824,1.226-0.065,1.594
			c-0.413,0-0.825,0.033-1.237,0.098c-0.586,0.065-0.878,0.239-0.878,0.521c0.021,0.325-0.011,0.683-0.098,1.074
			c-0.13,0.347,0.065,0.521,0.585,0.521c2.278-0.065,4.588-0.054,6.931,0.033c0.607,0,0.868-0.043,0.781-0.13
			c-0.13-0.195-0.25-0.499-0.358-0.911c0-0.737-0.217-1.117-0.651-1.139c-0.347,0.021-0.705,0.076-1.074,0.163
			c-0.868,0.369-1.421,0.174-1.66-0.586c-0.087-0.434,0.098-0.856,0.553-1.269c0.542-0.347,1.269-0.423,2.18-0.228
			c0.542,0.021,0.824-0.293,0.846-0.944c-0.13-0.846,0.314-1.377,1.334-1.595c1.149,0.174,1.616,0.781,1.399,1.822
			c-0.174,0.5,0.065,0.76,0.716,0.781c2.386,0.065,4.469,0.185,6.248,0.358c1.063-0.065,1.388,0.315,0.977,1.139
			c-1.15,1.648-2.375,2.126-3.677,1.432c-1.584-0.564-3.026-0.868-4.328-0.911c-0.499-0.021-0.825,0.314-0.976,1.009
			c-0.022,0.347-0.174,0.662-0.456,0.943c-0.174,0.109-0.152,0.174,0.065,0.195c0.759,0.087,1.226,0.532,1.399,1.334
			c-0.174,1.844-0.25,3.471-0.228,4.881c-0.195,1.345-0.999,1.953-2.408,1.822c-0.607-0.108-1.476-0.163-2.604-0.163
			c-0.542,0-0.813,0.207-0.813,0.618c0.043,0.434,0.326,0.651,0.846,0.651c1.974,0,3.948,0.033,5.922,0.098
			c1.063,0.065,2.039,0.434,2.929,1.106c0.456,0.456,0.694,0.998,0.716,1.627c-0.195,0.868-0.119,1.736,0.228,2.604
			c0.303,0.911,0.184,1.778-0.358,2.603c-0.5,0.586-0.998,0.662-1.497,0.228c-0.347-0.326-0.564-0.901-0.651-1.725
			c-0.043-1.605-0.207-2.852-0.488-3.742c-0.174-0.281-0.435-0.434-0.781-0.456c-1.454-0.303-3.081-0.434-4.881-0.39
			c-0.564-0.021-0.564,0.185,0,0.618c1.583,1.367,2.429,2.43,2.538,3.189c0.108,0.564-0.26,0.965-1.106,1.204l-2.278-0.195
			c-1.975-0.13-3.894,0.098-5.76,0.683c-0.868,0.195-1.378-0.292-1.529-1.464c0-0.412,0.184-0.856,0.553-1.334
			c0.629-0.585,1.258-1.225,1.887-1.92c0.434-0.499,0.293-0.749-0.423-0.749c-1.649,0.044-2.983,0.174-4.003,0.391
			c-0.477-0.043-0.868,0.228-1.171,0.813c-0.412,1.128-0.597,2.43-0.553,3.905c-0.13,1.258-0.77,1.703-1.92,1.334
			c-0.456-0.239-0.683-0.651-0.683-1.237c-0.13-0.911,0.216-2.646,1.041-5.207c0.13-0.629,0.347-1.041,0.651-1.236
			c1.562-0.564,4.122-0.813,7.68-0.749c0.542,0,0.835-0.217,0.879-0.651c0-0.412-0.326-0.607-0.977-0.585
			c-0.825,0.021-1.66,0.119-2.505,0.292c-1.497,0.391-2.246-0.347-2.246-2.212c-0.13-2.364-0.119-3.992,0.033-4.881
			c-0.065-0.564,0.304-0.954,1.106-1.171c0.391-0.043,0.434-0.336,0.13-0.878c-0.13-0.651-0.521-0.955-1.171-0.911
			c-1.67,0.13-3.287,0.314-4.849,0.553c-0.629,0.217-1.204,0.087-1.725-0.391c-0.369-0.629,0-1.258,1.106-1.888
			c0.824-0.499,1.616-0.727,2.375-0.683c1.02,0.109,2.039,0.163,3.059,0.163c0.542,0,0.672-0.336,0.39-1.009
			C42.911,46.361,43.171,45.841,43.952,45.493z M47.499,53.824c-0.629,0-1.269,0.044-1.92,0.13
			c-0.521,0.109-0.803,0.282-0.846,0.521c-0.022,0.26,0.293,0.423,0.944,0.488l1.92,0.032c0.521,0,0.781-0.206,0.781-0.618
			C48.356,53.986,48.063,53.802,47.499,53.824z M48.508,57.566c0-0.434-0.25-0.651-0.749-0.651l-2.245,0.065
			c-0.456,0.021-0.662,0.217-0.619,0.585c0.065,0.326,0.174,0.521,0.326,0.586c0.694,0.065,1.518,0.054,2.473-0.033
			C48.236,58.119,48.508,57.935,48.508,57.566z M51.339,65.376c-0.651-0.651-1.215-1.03-1.692-1.139
			c-0.39,0.26-0.857,0.694-1.399,1.302c-0.435,0.521-0.282,0.727,0.456,0.618c0.867-0.043,1.735-0.043,2.603,0
			C51.827,66.244,51.837,65.983,51.339,65.376z M53.389,56.915l-1.985-0.065c-0.542,0-0.813,0.195-0.813,0.586
			c0,0.412,0.26,0.618,0.781,0.618h1.725c0.737,0.065,1.127-0.173,1.171-0.716C54.289,57.122,53.996,56.98,53.389,56.915z
			 M53.096,53.824c-0.521-0.065-1.053-0.098-1.595-0.098c-0.521,0-0.813,0.207-0.878,0.618c-0.022,0.435,0.303,0.64,0.976,0.619
			c0.542-0.043,1.117-0.054,1.725-0.033c0.672-0.021,0.976-0.184,0.911-0.488C54.126,54.139,53.747,53.933,53.096,53.824z"/>
	</g>
</g>
</svg>
